{"title":"Amara Kaaviyam (2014) DVDScr x264 AAC 700MB - Shammu","uid":10997204,"size":756731249,"categoryP":"video","categoryS":"movies","magnet":"?xt=urn:btih:2995f39b6280a3d7d686c627188a1bc11a4f8e11&amp;dn=Amara+Kaaviyam+%282014%29+DVDScr+x264+AAC+700MB+-+Shammu&amp;tr=udp%3A%2F%2Ftracker.openbittorrent.com%3A80&amp;tr=udp%3A%2F%2Fopen.demonii.com%3A1337&amp;tr=udp%3A%2F%2Ftracker.coppersurfer.tk%3A6969&amp;tr=udp%3A%2F%2Fexodus.desync.com%3A6969","seeders":1,"leechers":0,"uploader":"TeamXDN","files":1,"time":1410078647,"description":"Amara Kaaviyam (2014) DVDScr x264 AAC 700MB - Shammu\n\nFormat : MPEG-4\nFormat profile : Base Media\nCodec ID : isom\nFile size : 722 MiB\nDuration : 2h 22mn\nOverall bit rate mode : Variable\nOverall bit rate : 708 Kbps\nEncoded date : UTC 2014-09-07 03:57:14\nTagged date : UTC 2014-09-07 03:57:14\n\nVideo\nID : 1\nFormat : AVC\nFormat/Info : Advanced Video Codec\nFormat profile : &lt;a class=&quot;__cf_email__&quot; href=&quot;/cdn-cgi/l/email-protection&quot; data-cfemail=&quot;8cc4e5ebe4ccc0bea2bd&quot;&gt;[email&amp;#160;protected]&lt;/a&gt;&lt;script cf-hash='f9e31' type=&quot;text/javascript&quot;&gt;\n/* &lt;![CDATA[ */!function(){try{var t=&quot;currentScript&quot;in document?document.currentScript:function(){for(var t=document.getElementsByTagName(&quot;script&quot;),e=t.length;e--;)if(t[e].getAttribute(&quot;cf-hash&quot;))return t[e]}();if(t&amp;&amp;t.previousSibling){var e,r,n,i,c=t.previousSibling,a=c.getAttribute(&quot;data-cfemail&quot;);if(a){for(e=&quot;&quot;,r=parseInt(a.substr(0,2),16),n=2;a.length-n;n+=2)i=parseInt(a.substr(n,2),16)^r,e+=String.fromCharCode(i);e=document.createTextNode(e),c.parentNode.replaceChild(e,c)}}}catch(u){}}();/* ]]&gt; */&lt;/script&gt;\nFormat settings, CABAC : Yes\nFormat settings, ReFrames : 4 frames\nCodec ID : avc1\nCodec ID/Info : Advanced Video Coding\nDuration : 2h 22mn\nBit rate : 616 Kbps\nMaximum bit rate : 2 031 Kbps\nWidth : 608 pixels\nHeight : 252 pixels\nDisplay aspect ratio : 2.40:1\nFrame rate mode : Constant\nFrame rate : 29.970 fps\nColor space : YUV\nChroma subsampling : 4:2:0\nBit depth : 8 bits\nScan type : Progressive\nBits/(Pixel*Frame) : 0.134\nStream size : 627 MiB (87%)\nWriting library : x264 core 142 r2431 ac76440\nEncoded date : UTC 2014-09-07 03:38:04\nTagged date : UTC 2014-09-07 03:57:20\n\nAudio\nID : 2\nFormat : AAC\nFormat/Info : Advanced Audio Codec\nFormat profile : LC\nCodec ID : 40\nDuration : 2h 22mn\nBit rate mode : Variable\nBit rate : 88.0 Kbps\nMaximum bit rate : 105 Kbps\nChannel(s) : 2 channels\nChannel positions : Front: L R\nSampling rate : 48.0 KHz\nCompression mode : Lossy\nStream size : 89.6 MiB (12%)\nEncoded date : UTC 2014-09-07 03:40:01\nTagged date : UTC 2014-09-07 03:57:20","torrent":{"xt":"urn:btih:2995f39b6280a3d7d686c627188a1bc11a4f8e11","amp;dn":"Amara+Kaaviyam+%282014%29+DVDScr+x264+AAC+700MB+-+Shammu","amp;tr":["udp%3A%2F%2Ftracker.openbittorrent.com%3A80","udp%3A%2F%2Fopen.demonii.com%3A1337","udp%3A%2F%2Ftracker.coppersurfer.tk%3A6969","udp%3A%2F%2Fexodus.desync.com%3A6969"],"infoHash":"2995f39b6280a3d7d686c627188a1bc11a4f8e11","infoHashBuffer":{"type":"Buffer","data":[41,149,243,155,98,128,163,215,214,134,198,39,24,138,27,193,26,79,142,17]},"announce":[],"urlList":[]}}